<svg width="180" height="50" viewBox="0 0 180 50" fill="none" xmlns="http://www.w3.org/2000/svg">
<rect width="180" height="49.4186" rx="8" fill="#0B0F19"/>
<path d="M43.5694 23.4579C43.5333 19.5481 46.8528 17.646 47.0046 17.5575C45.1246 14.885 42.2107 14.5199 41.1867 14.4908C38.7394 14.2397 36.3655 15.9186 35.1188 15.9186C33.8473 15.9186 31.9275 14.5151 29.8584 14.5563C27.1958 14.5963 24.705 16.0993 23.3389 18.4333C20.5195 23.1922 22.6222 30.1857 25.3233 34.0323C26.6745 35.9163 28.2534 38.0198 30.32 37.9458C32.3418 37.8645 33.097 36.689 35.5369 36.689C37.9543 36.689 38.6635 37.9458 40.7712 37.8984C42.941 37.8645 44.3072 36.006 45.6111 34.1051C47.1725 31.9458 47.7996 29.8193 47.8245 29.7101C47.7735 29.6931 43.6104 28.144 43.5694 23.4579Z" fill="white"/>
<path d="M39.588 11.9603C40.6754 10.6344 41.4194 8.83054 41.2129 7C39.639 7.06793 37.6707 8.06145 36.5372 9.35823C35.5344 10.501 34.6386 12.374 34.87 14.1354C36.638 14.2639 38.4533 13.2656 39.588 11.9603Z" fill="white"/>
<path d="M72.7597 37.6754H69.9341L68.3864 32.9335H63.0065L61.5321 37.6754H58.7812L64.1114 21.5317H67.4035L72.7597 37.6754ZM67.9198 30.944L66.5201 26.7285C66.372 26.2979 66.0946 25.2838 65.6852 23.6873H65.6355C65.4725 24.3739 65.21 25.3881 64.8492 26.7285L63.4743 30.944H67.9198Z" fill="white"/>
<path d="M86.4669 31.7119C86.4669 33.6917 85.9182 35.2566 84.8209 36.4053C83.8379 37.428 82.6174 37.9387 81.1605 37.9387C79.5878 37.9387 78.4581 37.3879 77.77 36.2865H77.7203V42.4186H75.0677V29.8668C75.0677 28.6222 75.0341 27.3448 74.9694 26.0347H77.3022L77.4503 27.8798H77.5001C78.3847 26.4896 79.7271 25.7957 81.5287 25.7957C82.9372 25.7957 84.1129 26.338 85.0535 27.4237C85.9966 28.5106 86.4669 29.9396 86.4669 31.7119ZM83.7645 31.8065C83.7645 30.6735 83.5033 29.7394 82.9782 29.0043C82.4046 28.2377 81.6345 27.8543 80.669 27.8543C80.0146 27.8543 79.4198 28.0678 78.8886 28.4888C78.3561 28.9133 78.0077 29.4677 77.8447 30.1543C77.7626 30.4746 77.7215 30.7366 77.7215 30.9428V32.8838C77.7215 33.7305 77.9878 34.445 78.5203 35.0285C79.0528 35.612 79.7446 35.9031 80.5956 35.9031C81.5947 35.9031 82.3723 35.5271 82.9284 34.7774C83.4858 34.0265 83.7645 33.0366 83.7645 31.8065Z" fill="white"/>
<path d="M100.199 31.7119C100.199 33.6917 99.6503 35.2566 98.5517 36.4053C97.5701 37.428 96.3495 37.9387 94.8926 37.9387C93.3199 37.9387 92.1902 37.3879 91.5034 36.2865H91.4536V42.4186H88.801V29.8668C88.801 28.6222 88.7674 27.3448 88.7027 26.0347H91.0356L91.1837 27.8798H91.2334C92.1168 26.4896 93.4593 25.7957 95.2621 25.7957C96.6693 25.7957 97.845 26.338 98.7881 27.4237C99.7275 28.5106 100.199 29.9396 100.199 31.7119ZM97.4967 31.8065C97.4967 30.6735 97.2341 29.7394 96.7091 29.0043C96.1355 28.2377 95.3679 27.8543 94.4011 27.8543C93.7454 27.8543 93.152 28.0678 92.6194 28.4888C92.0869 28.9133 91.7398 29.4677 91.5768 30.1543C91.4959 30.4746 91.4536 30.7366 91.4536 30.9428V32.8838C91.4536 33.7305 91.7199 34.445 92.2499 35.0285C92.7824 35.6108 93.4742 35.9031 94.3277 35.9031C95.3268 35.9031 96.1044 35.5271 96.6606 34.7774C97.218 34.0265 97.4967 33.0366 97.4967 31.8065Z" fill="white"/>
<path d="M115.552 33.1482C115.552 34.5214 115.063 35.6387 114.082 36.5012C113.003 37.4437 111.501 37.9144 109.572 37.9144C107.79 37.9144 106.361 37.5796 105.28 36.9088L105.895 34.7531C107.059 35.4397 108.337 35.7842 109.73 35.7842C110.729 35.7842 111.506 35.5635 112.065 35.1243C112.621 34.6852 112.898 34.0956 112.898 33.3605C112.898 32.7054 112.67 32.1535 112.21 31.7059C111.754 31.2582 110.991 30.8421 109.926 30.4576C107.027 29.4034 105.579 27.8592 105.579 25.8285C105.579 24.5013 106.087 23.4132 107.103 22.5665C108.116 21.7185 109.467 21.2952 111.157 21.2952C112.663 21.2952 113.915 21.5511 114.914 22.0618L114.251 24.1702C113.318 23.6752 112.263 23.4278 111.082 23.4278C110.149 23.4278 109.42 23.6522 108.897 24.0986C108.455 24.4977 108.234 24.9842 108.234 25.5604C108.234 26.1985 108.487 26.7261 108.994 27.141C109.436 27.5244 110.238 27.9392 111.403 28.3869C112.828 28.9461 113.874 29.5999 114.547 30.3496C115.218 31.0969 115.552 32.0322 115.552 33.1482Z" fill="white"/>
<path d="M124.323 27.9756H121.399V33.6274C121.399 35.0649 121.914 35.783 122.947 35.783C123.421 35.783 123.814 35.743 124.125 35.6629L124.198 37.6269C123.676 37.8174 122.988 37.9132 122.135 37.9132C121.088 37.9132 120.269 37.6014 119.678 36.9791C119.09 36.3556 118.793 35.3099 118.793 33.8409V27.9732H117.052V26.0322H118.793V23.9009L121.399 23.1342V26.0322H124.323V27.9756Z" fill="white"/>
<path d="M137.515 31.7592C137.515 33.5485 136.99 35.0176 135.942 36.1664C134.843 37.3491 133.385 37.9387 131.567 37.9387C129.816 37.9387 128.421 37.3722 127.381 36.2391C126.341 35.1061 125.821 33.6759 125.821 31.9521C125.821 30.1482 126.356 28.6707 127.429 27.5219C128.501 26.3719 129.946 25.7969 131.764 25.7969C133.516 25.7969 134.926 26.3634 135.989 27.4977C137.007 28.5979 137.515 30.0184 137.515 31.7592ZM134.763 31.8429C134.763 30.7693 134.527 29.8486 134.051 29.0807C133.495 28.1515 132.7 27.6881 131.67 27.6881C130.603 27.6881 129.793 28.1527 129.237 29.0807C128.761 29.8498 128.525 30.7851 128.525 31.8914C128.525 32.965 128.761 33.8858 129.237 34.6524C129.811 35.5816 130.612 36.045 131.646 36.045C132.659 36.045 133.454 35.5719 134.027 34.6282C134.516 33.8457 134.763 32.9153 134.763 31.8429Z" fill="white"/>
<path d="M146.137 28.3092C145.874 28.2619 145.594 28.2377 145.301 28.2377C144.368 28.2377 143.646 28.581 143.138 29.2688C142.697 29.8753 142.475 30.642 142.475 31.5676V37.6754H139.824L139.849 29.7006C139.849 28.359 139.815 27.1374 139.749 26.0359H142.06L142.157 28.2631H142.23C142.51 27.4977 142.952 26.8814 143.556 26.4192C144.147 26.0032 144.786 25.7957 145.474 25.7957C145.719 25.7957 145.94 25.8127 146.137 25.843V28.3092Z" fill="white"/>
<path d="M158 31.3043C158 31.7677 157.969 32.1583 157.903 32.4774H149.945C149.977 33.6274 150.361 34.5069 151.1 35.1134C151.771 35.6556 152.638 35.9274 153.703 35.9274C154.881 35.9274 155.956 35.7442 156.923 35.3766L157.338 37.172C156.209 37.6524 154.875 37.8914 153.336 37.8914C151.484 37.8914 150.031 37.36 148.974 36.2986C147.919 35.2371 147.39 33.8118 147.39 32.0237C147.39 30.2683 147.881 28.8066 148.865 27.6408C149.896 26.3962 151.288 25.7739 153.04 25.7739C154.76 25.7739 156.063 26.3962 156.948 27.6408C157.648 28.6295 158 29.8523 158 31.3043ZM155.471 30.6335C155.488 29.8668 155.315 29.2045 154.956 28.6452C154.497 27.9259 153.791 27.5668 152.842 27.5668C151.975 27.5668 151.269 27.9174 150.73 28.621C150.289 29.1802 150.026 29.851 149.945 30.6323H155.471V30.6335Z" fill="white"/>
<path d="M67.0427 11.6002C67.0427 13.028 66.6035 14.1028 65.7264 14.8245C64.9139 15.4905 63.7593 15.8241 62.2638 15.8241C61.5223 15.8241 60.8877 15.7926 60.3564 15.7295V7.92816C61.0495 7.81898 61.796 7.76318 62.6022 7.76318C64.0268 7.76318 65.1005 8.06523 65.8247 8.66935C66.6359 9.35232 67.0427 10.3288 67.0427 11.6002ZM65.6679 11.6353C65.6679 10.7098 65.4166 10.0001 64.9139 9.50516C64.4113 9.01144 63.6772 8.76397 62.7105 8.76397C62.2999 8.76397 61.9503 8.79066 61.6604 8.84646V14.7772C61.8209 14.8015 62.1145 14.8124 62.5412 14.8124C63.5391 14.8124 64.3092 14.5419 64.8517 14.0009C65.3942 13.4598 65.6679 12.6713 65.6679 11.6353Z" fill="white"/>
<path d="M74.3324 12.8472C74.3324 13.7267 74.0749 14.4473 73.5598 15.0126C73.0198 15.5936 72.3044 15.8836 71.4111 15.8836C70.5501 15.8836 69.8645 15.6058 69.3532 15.0477C68.8431 14.4909 68.588 13.7886 68.588 12.9418C68.588 12.0563 68.8505 11.3296 69.3781 10.7656C69.9056 10.2015 70.6148 9.91882 71.5081 9.91882C72.3691 9.91882 73.0609 10.1966 73.5847 10.7534C74.0823 11.2945 74.3324 11.9932 74.3324 12.8472ZM72.98 12.8885C72.98 12.3608 72.863 11.9083 72.6304 11.531C72.3566 11.0749 71.9672 10.8468 71.4608 10.8468C70.937 10.8468 70.5389 11.0749 70.2652 11.531C70.0313 11.9083 69.9155 12.368 69.9155 12.9115C69.9155 13.4392 70.0325 13.8917 70.2652 14.2689C70.5476 14.7251 70.9408 14.9531 71.4484 14.9531C71.9461 14.9531 72.3367 14.7214 72.6179 14.2568C72.8593 13.8723 72.98 13.4161 72.98 12.8885Z" fill="white"/>
<path d="M84.1067 10.0353L82.2716 15.7538H81.0772L80.317 13.2706C80.1241 12.6507 79.9673 12.0344 79.8454 11.423H79.8218C79.7085 12.0514 79.5518 12.6665 79.3502 13.2706L78.5427 15.7538H77.3346L75.609 10.0353H76.9489L77.6121 12.7538C77.7726 13.3967 77.9045 14.0093 78.0102 14.5892H78.0339C78.1309 14.1112 78.2914 13.5023 78.5179 12.7659L79.3502 10.0365H80.4128L81.2103 12.7077C81.4031 13.3591 81.5599 13.9863 81.6806 14.5904H81.7167C81.805 14.0021 81.9381 13.3749 82.1148 12.7077L82.8265 10.0365H84.1067V10.0353Z" fill="white"/>
<path d="M90.8664 15.7538H89.5625V12.4784C89.5625 11.4692 89.1693 10.9645 88.3805 10.9645C87.9936 10.9645 87.6813 11.1028 87.4387 11.3806C87.1986 11.6584 87.0766 11.9859 87.0766 12.3608V15.7526H85.7727V11.6693C85.7727 11.1671 85.7566 10.6224 85.7255 10.0329H86.8713L86.9323 10.9269H86.9684C87.1202 10.6491 87.3466 10.4198 87.644 10.2367C87.9973 10.0232 88.393 9.91519 88.826 9.91519C89.3734 9.91519 89.8288 10.0875 90.1908 10.4332C90.6412 10.8565 90.8664 11.4886 90.8664 12.328V15.7538Z" fill="white"/>
<path d="M94.4621 15.7538H93.1595V7.41138H94.4621V15.7538Z" fill="white"/>
<path d="M102.139 12.8472C102.139 13.7267 101.881 14.4473 101.366 15.0126C100.826 15.5936 100.11 15.8836 99.2174 15.8836C98.3552 15.8836 97.6697 15.6058 97.1595 15.0477C96.6494 14.4909 96.3944 13.7886 96.3944 12.9418C96.3944 12.0563 96.6569 11.3296 97.1844 10.7656C97.712 10.2015 98.4212 9.91882 99.3132 9.91882C100.175 9.91882 100.866 10.1966 101.391 10.7534C101.889 11.2945 102.139 11.9932 102.139 12.8472ZM100.785 12.8885C100.785 12.3608 100.668 11.9083 100.435 11.531C100.163 11.0749 99.7723 10.8468 99.2672 10.8468C98.7421 10.8468 98.344 11.0749 98.0715 11.531C97.8376 11.9083 97.7219 12.368 97.7219 12.9115C97.7219 13.4392 97.8389 13.8917 98.0715 14.2689C98.354 14.7251 98.7471 14.9531 99.2548 14.9531C99.7524 14.9531 100.142 14.7214 100.423 14.2568C100.666 13.8723 100.785 13.4161 100.785 12.8885Z" fill="white"/>
<path d="M108.449 15.7538H107.279L107.181 15.0951H107.145C106.745 15.6203 106.174 15.8836 105.432 15.8836C104.878 15.8836 104.431 15.7101 104.093 15.3656C103.787 15.0526 103.634 14.6632 103.634 14.201C103.634 13.5023 103.933 12.9697 104.534 12.601C105.134 12.2322 105.977 12.0514 107.063 12.0599V11.9532C107.063 11.1998 106.658 10.8238 105.845 10.8238C105.267 10.8238 104.757 10.9657 104.316 11.2472L104.051 10.4125C104.596 10.0838 105.269 9.91882 106.063 9.91882C107.596 9.91882 108.365 10.7073 108.365 12.2843V14.3902C108.365 14.9616 108.393 15.4165 108.449 15.7538ZM107.096 13.7886V12.9066C105.657 12.8824 104.938 13.2669 104.938 14.0591C104.938 14.3575 105.02 14.5807 105.188 14.7299C105.356 14.8791 105.57 14.9531 105.825 14.9531C106.111 14.9531 106.379 14.8646 106.623 14.6887C106.868 14.5116 107.018 14.2871 107.074 14.0118C107.088 13.9499 107.096 13.8747 107.096 13.7886Z" fill="white"/>
<path d="M115.858 15.7538H114.701L114.64 14.8354H114.604C114.235 15.5342 113.605 15.8836 112.721 15.8836C112.014 15.8836 111.425 15.613 110.959 15.072C110.492 14.531 110.26 13.8286 110.26 12.9661C110.26 12.0405 110.512 11.2908 111.02 10.7182C111.511 10.1845 112.113 9.91761 112.83 9.91761C113.618 9.91761 114.169 10.176 114.482 10.694H114.507V7.41138H115.812V14.2131C115.812 14.7699 115.827 15.2831 115.858 15.7538ZM114.507 13.3421V12.3887C114.507 12.2237 114.495 12.0902 114.471 11.9883C114.398 11.6826 114.24 11.4255 114 11.218C113.757 11.0106 113.465 10.9063 113.127 10.9063C112.641 10.9063 112.26 11.0943 111.98 11.4716C111.703 11.8488 111.562 12.3304 111.562 12.9188C111.562 13.4841 111.695 13.9426 111.963 14.2956C112.245 14.6717 112.626 14.8597 113.103 14.8597C113.531 14.8597 113.873 14.7032 114.133 14.389C114.384 14.0991 114.507 13.7497 114.507 13.3421Z" fill="white"/>
<path d="M127.01 12.8472C127.01 13.7267 126.753 14.4473 126.237 15.0126C125.697 15.5936 124.983 15.8836 124.089 15.8836C123.229 15.8836 122.543 15.6058 122.031 15.0477C121.521 14.4909 121.266 13.7886 121.266 12.9418C121.266 12.0563 121.528 11.3296 122.056 10.7656C122.583 10.2015 123.292 9.91882 124.187 9.91882C125.047 9.91882 125.74 10.1966 126.262 10.7534C126.76 11.2945 127.01 11.9932 127.01 12.8472ZM125.659 12.8885C125.659 12.3608 125.542 11.9083 125.309 11.531C125.034 11.0749 124.646 10.8468 124.139 10.8468C123.616 10.8468 123.218 11.0749 122.943 11.531C122.709 11.9083 122.593 12.368 122.593 12.9115C122.593 13.4392 122.71 13.8917 122.943 14.2689C123.225 14.7251 123.618 14.9531 124.126 14.9531C124.624 14.9531 125.016 14.7214 125.297 14.2568C125.537 13.8723 125.659 13.4161 125.659 12.8885Z" fill="white"/>
<path d="M134.021 15.7538H132.718V12.4784C132.718 11.4692 132.325 10.9645 131.535 10.9645C131.148 10.9645 130.836 11.1028 130.595 11.3806C130.353 11.6584 130.233 11.9859 130.233 12.3608V15.7526H128.927V11.6693C128.927 11.1671 128.912 10.6224 128.881 10.0329H130.026L130.087 10.9269H130.123C130.276 10.6491 130.503 10.4198 130.799 10.2367C131.153 10.0232 131.548 9.91519 131.982 9.91519C132.528 9.91519 132.983 10.0875 133.345 10.4332C133.797 10.8565 134.021 11.4886 134.021 12.328V15.7538Z" fill="white"/>
<path d="M142.796 10.9876H141.361V13.7655C141.361 14.4715 141.616 14.8245 142.121 14.8245C142.355 14.8245 142.549 14.8051 142.702 14.7651L142.735 15.7295C142.478 15.8241 142.139 15.8714 141.723 15.8714C141.208 15.8714 140.807 15.7186 140.517 15.4129C140.226 15.1072 140.082 14.5928 140.082 13.8711V10.9876H139.224V10.0353H140.082V8.98718L141.359 8.61113V10.0341H142.795V10.9876H142.796Z" fill="white"/>
<path d="M149.699 15.7538H148.394V12.5027C148.394 11.4776 148.001 10.9645 147.213 10.9645C146.609 10.9645 146.195 11.2617 145.969 11.8561C145.93 11.9811 145.908 12.1339 145.908 12.3134V15.7525H144.605V7.41138H145.908V10.8577H145.933C146.344 10.2306 146.932 9.91761 147.695 9.91761C148.235 9.91761 148.681 10.0899 149.036 10.4356C149.478 10.8662 149.699 11.5067 149.699 12.3535V15.7538Z" fill="white"/>
<path d="M156.82 12.624C156.82 12.8521 156.802 13.0437 156.771 13.2002H152.861C152.878 13.7655 153.065 14.1961 153.427 14.4946C153.758 14.7614 154.184 14.8949 154.707 14.8949C155.285 14.8949 155.813 14.8051 156.288 14.6244L156.492 15.5075C155.936 15.7428 155.282 15.8605 154.524 15.8605C153.616 15.8605 152.9 15.5997 152.383 15.0781C151.863 14.5564 151.605 13.8565 151.605 12.9782C151.605 12.1157 151.845 11.3976 152.329 10.825C152.834 10.2136 153.518 9.9079 154.38 9.9079C155.223 9.9079 155.864 10.2136 156.297 10.825C156.647 11.3102 156.82 11.9107 156.82 12.624ZM155.575 12.2952C155.585 11.918 155.499 11.5929 155.323 11.3187C155.096 10.9657 154.752 10.7886 154.285 10.7886C153.86 10.7886 153.513 10.9609 153.248 11.3066C153.031 11.582 152.903 11.9107 152.861 12.2952H155.575Z" fill="white"/>
</svg>
